<svg version="1.1" id="Layer_1" xmlns="http://www.w3.org/2000/svg" xmlns:xlink="http://www.w3.org/1999/xlink" x="0px" y="0px"
	 width="100%" viewBox="0 0 1020 260" enable-background="new 0 0 1020 260" xml:space="preserve">
<path fill="none" opacity="1.000000" stroke="#000000" stroke-linecap="round" stroke-linejoin="round" stroke-width="8.000000"
	d="
M831.000000,138.000000 
	C829.405090,139.914001 829.489990,142.203781 829.491943,144.500000 
	C829.506775,162.000000 829.487793,179.500015 829.505493,197.000000 
	C829.513367,204.755051 832.374756,207.817291 839.978882,209.123108 
	C841.519592,209.387695 843.011536,209.464355 844.500061,209.465698 
	C891.166687,209.507553 937.833313,209.503479 984.500000,209.494247 
	C988.827454,209.493393 993.160156,209.647675 996.531433,206.029266 
	C998.695740,203.706177 999.573425,201.191727 999.553345,197.999664 
	C999.441956,180.333694 1000.051575,162.642593 999.281738,145.009537 
	C998.857361,135.289642 999.993774,125.679817 999.588501,115.996292 
	C999.184631,106.346535 999.500000,96.666664 999.500000,87.000000 
	C999.500000,78.170113 997.130371,75.635262 988.506287,74.453957 
	C982.331970,73.608208 976.162476,74.299667 970.000305,73.993996 
	C959.172791,73.456902 948.242188,73.214256 937.510315,73.456367 
	C924.515137,73.749535 911.490967,73.881027 898.501160,73.804993 
	C892.036926,73.767159 885.240479,73.074387 879.031067,73.477852 
	C865.168091,74.378616 851.291565,72.887154 837.501343,74.511589 
	C833.436279,74.990440 829.587036,79.312775 829.549011,84.000397 
	C829.420532,99.832687 829.447021,115.667061 829.566284,131.499496 
	C829.581360,133.503159 830.500000,135.500000 831.000000,137.500000 
"/>
<path fill="none" opacity="1.000000" stroke="#000000" stroke-linecap="round" stroke-linejoin="round" stroke-width="9.000000"
	d="
M298.000000,135.000000 
	C297.166656,134.333328 295.790497,133.802734 295.584015,132.978943 
	C293.535400,124.807022 286.923676,122.336273 279.980133,121.112778 
	C267.828003,118.971504 255.567169,119.274353 243.515305,122.066093 
	C236.919662,123.593941 234.023788,127.665192 233.959610,133.499557 
	C233.894409,139.425323 238.017319,141.360657 242.506699,142.981445 
	C248.634277,145.193695 255.087692,145.737701 261.497803,146.517929 
	C269.715790,147.518204 278.049622,147.821548 286.002045,150.493912 
	C292.369354,152.633621 294.836792,155.205566 295.000000,160.000000 
	C295.170135,164.998154 292.301971,169.332443 286.987427,171.468689 
	C278.973206,174.690094 270.418396,174.879776 262.000702,174.842285 
	C256.857330,174.819412 251.515594,174.704712 246.506897,172.979980 
	C240.163010,170.795532 234.581406,167.780701 234.000000,160.000000 
"/>
<path fill="none" opacity="1.000000" stroke="#000000" stroke-linecap="round" stroke-linejoin="round" stroke-width="9.000000"
	d="
M140.000000,146.500000 
	C152.528351,146.635071 164.912857,149.154434 177.503387,148.573471 
	C183.457932,148.298691 189.407135,147.909012 194.963150,145.898178 
	C201.676544,143.468445 205.663300,140.881256 205.103668,132.992645 
	C204.710403,127.449364 200.633514,124.352318 196.920059,123.275749 
	C181.903687,118.922325 166.454773,117.921158 151.551819,123.635162 
	C140.498123,127.873306 137.585526,134.029556 139.010605,145.998734 
	C139.262894,148.117691 137.724472,149.801834 137.933792,152.006287 
	C138.698318,160.057953 142.074966,166.257645 149.493408,170.013031 
	C160.192307,175.429092 171.407120,175.516006 183.014786,174.123169 
	C191.086472,173.154617 198.238205,170.650192 203.324951,164.358475 
	C204.955276,162.341934 206.135269,160.059662 208.500000,158.750000 
"/>
<path fill="none" opacity="1.000000" stroke="#000000" stroke-linecap="round" stroke-linejoin="round" stroke-width="11.000000"
	d="
M532.000000,173.000000 
	C532.000000,155.500000 532.004578,138.000000 531.993896,120.500000 
	C531.992676,118.452118 532.052002,116.474449 531.059814,114.470375 
	C529.003052,110.315895 527.241150,109.800339 524.012878,113.012955 
	C520.061951,116.944778 517.566956,121.952957 514.580078,126.552010 
	C505.690155,140.240326 497.164276,154.165161 488.507721,168.004837 
	C488.114227,168.633865 487.936584,169.415131 487.483582,169.986984 
	C484.023285,174.355042 480.753418,174.280273 477.537079,169.475174 
	C474.040375,164.251221 470.819763,158.841751 467.502777,153.498276 
	C460.160553,141.670471 452.908051,129.785904 445.448578,118.032646 
	C443.533173,115.014725 441.577332,111.721153 437.175995,110.820763 
	C434.752014,113.385040 433.953125,116.452393 433.967438,120.000130 
	C434.038666,137.666519 434.000000,155.333328 434.000000,173.000000 
"/>
<path fill="none" opacity="1.000000" stroke="#000000" stroke-linecap="round" stroke-linejoin="round" stroke-width="11.000000"
	d="
M97.500000,143.000000 
	C99.000000,141.666672 100.290016,139.860626 102.037483,139.084381 
	C108.522804,136.203491 110.384476,127.379089 108.414879,120.022789 
	C106.605331,113.264236 102.191750,110.256035 93.493950,109.577583 
	C77.023453,108.292847 60.499855,109.173584 43.999737,109.030075 
	C38.497360,108.982216 37.259293,110.086777 37.569378,115.496025 
	C38.094814,124.662003 35.810829,133.980011 39.000000,143.000000 
	C35.773300,152.694687 38.298759,162.681854 37.500000,172.500000 
"/>
<path fill="none" opacity="1.000000" stroke="#000000" stroke-linecap="round" stroke-linejoin="round" stroke-width="8.000000"
	d="
M951.000000,73.000000 
	C951.000000,65.833336 950.955505,58.666317 951.011963,51.500095 
	C951.073792,43.655323 945.832031,39.098412 938.994202,39.322388 
	C922.345337,39.867722 905.666687,39.489731 889.000000,39.504955 
	C882.140747,39.511223 878.520874,43.140675 878.504211,50.000011 
	C878.486023,57.499966 878.500000,65.000000 878.500000,72.500000 
"/>
<path fill="none" opacity="1.000000" stroke="#000000" stroke-linecap="round" stroke-linejoin="round" stroke-width="11.000000"
	d="
M327.000000,122.000000 
	C327.000000,131.333328 327.000000,140.666672 327.000000,150.000000 
	C327.000000,162.966064 333.689148,171.005630 346.499115,173.504486 
	C362.094879,176.546799 375.800262,173.637054 386.520020,161.016998 
	C388.103638,159.152618 389.987823,157.565048 392.500000,157.000000 
"/>
<path fill="none" opacity="1.000000" stroke="#000000" stroke-linecap="round" stroke-linejoin="round" stroke-width="10.000000"
	d="
M642.500000,176.500000 
	C638.222534,174.777435 635.074707,171.961136 633.459961,167.514542 
	C633.061462,166.417160 632.242432,165.438446 631.487976,164.509781 
	C625.783325,157.488327 623.508301,148.656906 619.028320,140.983475 
	C614.400940,133.057831 609.960266,125.021599 605.576416,116.958458 
	C605.231018,116.323181 604.939209,115.635666 604.524719,114.984276 
	C600.046448,107.946190 597.191833,107.824883 593.044312,115.025528 
	C586.379211,126.597084 579.909485,138.284714 573.588318,150.047455 
	C572.523193,152.029434 571.920410,154.536240 572.500000,157.000000 
"/>
<path fill="none" opacity="1.000000" stroke="#000000" stroke-linecap="round" stroke-linejoin="round" stroke-width="10.000000"
	d="
M805.500000,108.500000 
	C786.000000,108.500000 766.500000,108.481964 747.000000,108.508400 
	C738.577087,108.519821 739.188293,110.824013 739.494995,116.000298 
	C740.017761,124.826088 739.936218,133.714584 740.043579,142.505569 
	C740.140076,150.406784 740.024841,158.509216 739.482117,166.498779 
	C739.163513,171.188309 738.969727,173.455795 746.500061,173.479309 
	C766.166565,173.540741 785.833313,173.500000 805.500000,173.500000 
"/>
<path fill="none" opacity="1.000000" stroke="#000000" stroke-linecap="round" stroke-linejoin="round" stroke-width="8.000000"
	d="
M937.500000,72.500000 
	C937.356201,68.816101 937.790649,65.134575 936.551025,61.482677 
	C934.619019,55.790905 931.857788,53.515366 926.000000,53.503822 
	C918.166687,53.488384 910.333191,53.470055 902.500061,53.509579 
	C896.350769,53.540607 892.066528,57.850857 892.005066,64.000053 
	C891.975098,66.999748 892.000000,70.000000 892.000000,73.000000 
"/>
<path fill="none" opacity="1.000000" stroke="#000000" stroke-linecap="round" stroke-linejoin="round" stroke-width="8.000000"
	d="
M901.000000,139.500000 
	C881.833313,139.500000 862.666565,139.466919 843.500061,139.526169 
	C839.356384,139.538971 835.270386,139.544357 831.500000,137.500000 
"/>
<path fill="none" opacity="1.000000" stroke="#000000" stroke-linecap="round" stroke-linejoin="round" stroke-width="8.000000"
	d="
M997.500000,137.500000 
	C993.729614,139.544357 989.643616,139.538986 985.499939,139.526169 
	C966.333435,139.466934 947.166687,139.500000 928.000000,139.500000 
"/>
<path fill="none" opacity="1.000000" stroke="#000000" stroke-linecap="round" stroke-linejoin="round" stroke-width="11.000000"
	d="
M679.000000,111.000000 
	C679.000000,131.666672 679.000000,152.333328 679.000000,173.000000 
"/>
<path fill="none" opacity="1.000000" stroke="#000000" stroke-linecap="round" stroke-linejoin="round" stroke-width="10.000000"
	d="
M798.500000,142.500000 
	C779.333313,142.500000 760.166687,142.500000 741.000000,142.500000 
"/>
<path fill="none" opacity="1.000000" stroke="#000000" stroke-linecap="round" stroke-linejoin="round" stroke-width="11.000000"
	d="
M39.500000,143.000000 
	C55.500000,143.000000 71.500076,142.974670 87.499931,143.022568 
	C90.500404,143.031555 93.580528,142.961578 96.480560,143.589752 
	C100.528206,144.466492 107.421364,154.779083 107.487175,159.500183 
	C107.547562,163.832672 107.500000,168.166672 107.500000,172.500000 
"/>
<path fill="none" opacity="1.000000" stroke="#000000" stroke-linecap="round" stroke-linejoin="round" stroke-width="11.000000"
	d="
M553.500000,177.000000 
	C558.803772,175.467499 562.385925,172.129471 564.559082,167.025162 
	C565.544617,164.710403 567.065125,162.595108 568.527466,160.519333 
	C570.112183,158.269821 571.730469,156.317978 575.071960,158.383636 
	C576.472900,159.249695 578.666199,158.971344 580.500061,158.977707 
	C592.833252,159.020523 605.166931,158.957626 617.499817,159.033661 
	C620.150635,159.049988 622.643494,158.717361 625.000000,157.500000 
"/>
<path fill="none" opacity="1.000000" stroke="#000000" stroke-linecap="round" stroke-linejoin="round" stroke-width="8.000000"
	d="
M927.500000,139.500000 
	C926.055908,136.623413 926.526306,133.528229 926.515320,130.499939 
	C926.504211,127.441711 925.287659,125.872353 921.998962,125.963692 
	C917.002869,126.102470 911.997131,126.102478 907.001038,125.963699 
	C903.712341,125.872353 902.123169,127.489799 902.577942,130.488174 
	C903.191895,134.535767 901.219177,138.345963 902.375244,142.534439 
	C904.331238,149.621323 908.133362,153.500000 914.500000,153.500000 
	C920.904907,153.500000 925.144714,149.594254 926.522583,142.504395 
	C926.690796,141.638962 927.166626,140.833328 927.500000,139.999985 
"/>
<path fill="none" opacity="1.000000" stroke="#000000" stroke-linecap="round" stroke-linejoin="round" stroke-width="11.000000"
	d="
M715.000000,109.000000 
	C703.013489,109.823929 690.885681,107.256256 679.000000,110.500000 
	C667.114319,107.256256 654.986511,109.823929 643.000000,109.000000 
"/>
<path fill="none" opacity="1.000000" stroke="#000000" stroke-linecap="round" stroke-linejoin="round" stroke-width="10.000000"
	d="
M395.500000,121.500000 
	C395.322693,132.695877 396.289673,143.959305 393.510315,155.002594 
	C393.347534,155.649277 393.011719,156.562576 393.298767,156.965240 
	C396.966339,162.110016 395.004944,167.965240 395.500000,173.500000 
"/>
</svg>